<svg width="33" height="33" viewBox="0 0 33 33" fill="none" xmlns="http://www.w3.org/2000/svg">
<g clip-path="url(#clip0_61_788)">
<path d="M25.203 11.073C24.9899 10.8659 24.6908 10.7718 24.3982 10.8199C24.105 10.8679 23.8518 11.0519 23.7158 11.316C23.2481 12.2247 22.6539 13.0598 21.9549 13.798C22.0246 13.2647 22.0597 12.7283 22.0597 12.1904C22.0597 11.1584 21.9214 10.0963 21.6484 9.03335C20.7511 5.54204 18.3979 2.58948 15.1926 0.932789C14.9136 0.788601 14.5811 0.793664 14.3065 0.946289C14.0319 1.09898 13.8521 1.37891 13.8275 1.69204C13.5776 4.86479 11.9434 7.75129 9.3413 9.61329C9.30687 9.6381 9.27268 9.66323 9.23849 9.68823C9.16768 9.74004 9.10093 9.78904 9.03856 9.83016C9.02881 9.83666 9.01912 9.84329 9.00962 9.8501C7.37312 11.0218 6.0228 12.5837 5.10449 14.3674C4.17137 16.1817 3.69824 18.1286 3.69824 20.1539C3.69824 21.1857 3.83655 22.2477 4.10937 23.3109C5.54905 28.9144 10.5918 32.828 16.3724 32.828C23.3606 32.828 29.0459 27.1424 29.0459 20.1539C29.0459 16.7077 27.6811 13.4827 25.203 11.073Z" fill="#28A263"/>
<circle cx="15.7579" cy="19.6519" r="3.76471" fill="white"/>
</g>
<defs>
<clipPath id="clip0_61_788">
<rect width="32" height="32" fill="white" transform="translate(0.698242 0.828125)"/>
</clipPath>
</defs>
</svg>
