<svg width="43" height="45" viewBox="0 0 43 45" fill="none" xmlns="http://www.w3.org/2000/svg">
<g clip-path="url(#clip0_133_1075)">
<path d="M33.3666 14.303C33.0802 14.0149 32.6784 13.884 32.2851 13.951C31.8912 14.0176 31.551 14.2737 31.3682 14.641C30.7397 15.905 29.9413 17.0665 29.002 18.0933C29.0957 17.3516 29.1428 16.6054 29.1428 15.8573C29.1428 14.4217 28.9569 12.9444 28.5902 11.4659C27.3843 6.60962 24.2223 2.50271 19.9152 0.198318C19.5402 -0.00224207 19.0934 0.00479968 18.7244 0.217096C18.3555 0.429478 18.1139 0.818861 18.0808 1.25441C17.745 5.66759 15.549 9.68261 12.0525 12.2726C12.0062 12.3071 11.9603 12.342 11.9143 12.3768C11.8192 12.4489 11.7295 12.517 11.6456 12.5742C11.6325 12.5833 11.6195 12.5925 11.6068 12.602C9.40772 14.2318 7.59324 16.4043 6.35925 18.8853C5.10537 21.409 4.4696 24.1171 4.4696 26.9342C4.4696 28.3693 4.65546 29.8466 5.02205 31.3254C6.95663 39.1198 13.7328 44.5635 21.5005 44.5635C30.8909 44.5635 38.5305 36.655 38.5305 26.9342C38.5305 22.1406 36.6966 17.6547 33.3666 14.303Z" fill="#28A263"/>
<ellipse cx="20.8485" cy="27.029" rx="5.21212" ry="5.39525" fill="white"/>
</g>
<defs>
<clipPath id="clip0_133_1075">
<rect width="43" height="44.5109" fill="white" transform="translate(0 0.0527344)"/>
</clipPath>
</defs>
</svg>
