<svg width="19" height="13" viewBox="0 0 19 13" fill="none" xmlns="http://www.w3.org/2000/svg">
<path d="M1.83008 12.8394C1.54675 12.8394 1.30942 12.7434 1.11808 12.5514C0.926748 12.3594 0.830748 12.122 0.830082 11.8394C0.829415 11.5567 0.925415 11.3194 1.11808 11.1274C1.31075 10.9354 1.54808 10.8394 1.83008 10.8394H17.8301C18.1134 10.8394 18.3511 10.9354 18.5431 11.1274C18.7351 11.3194 18.8307 11.5567 18.8301 11.8394C18.8294 12.122 18.7334 12.3597 18.5421 12.5524C18.3507 12.745 18.1134 12.8407 17.8301 12.8394H1.83008ZM1.83008 7.83936C1.54675 7.83936 1.30942 7.74336 1.11808 7.55136C0.926748 7.35936 0.830748 7.12202 0.830082 6.83936C0.829415 6.55669 0.925415 6.31936 1.11808 6.12736C1.31075 5.93536 1.54808 5.83936 1.83008 5.83936H17.8301C18.1134 5.83936 18.3511 5.93536 18.5431 6.12736C18.7351 6.31936 18.8307 6.55669 18.8301 6.83936C18.8294 7.12202 18.7334 7.35969 18.5421 7.55236C18.3507 7.74502 18.1134 7.84069 17.8301 7.83936H1.83008ZM1.83008 2.83936C1.54675 2.83936 1.30942 2.74336 1.11808 2.55136C0.926748 2.35936 0.830748 2.12202 0.830082 1.83936C0.829415 1.55669 0.925415 1.31936 1.11808 1.12736C1.31075 0.935356 1.54808 0.839355 1.83008 0.839355H17.8301C18.1134 0.839355 18.3511 0.935356 18.5431 1.12736C18.7351 1.31936 18.8307 1.55669 18.8301 1.83936C18.8294 2.12202 18.7334 2.35969 18.5421 2.55236C18.3507 2.74502 18.1134 2.84069 17.8301 2.83936H1.83008Z" fill="#252525"/>
</svg>
