<svg width="529" height="220" viewBox="0 0 529 220" fill="none" xmlns="http://www.w3.org/2000/svg">
<g clip-path="url(#clip0_61_485)">
<path d="M122.188 17.0938H35.0502C22.3857 17.0938 12.1191 28.5875 12.1191 42.7658V182.422C12.1191 196.6 22.3857 208.094 35.0502 208.094H122.188C134.853 208.094 145.119 196.6 145.119 182.422V42.7658C145.119 28.5875 134.853 17.0938 122.188 17.0938Z" fill="#28A263"/>
<path d="M71.4322 170.094H72.9852V185.094H71.4322V170.208V170.094ZM72.4676 183.491C71.5358 183.491 70.811 183.376 70.1898 183.033C69.6165 182.706 69.1201 182.235 68.7403 181.659C68.3262 181.086 68.1191 180.399 68.1191 179.598H69.8792C69.8792 180.285 70.1898 180.743 70.6039 181.315C71.1216 181.659 71.7428 181.888 72.5711 181.888C73.1511 181.909 73.725 181.75 74.2276 181.43C74.6418 181.201 74.8488 180.743 74.8488 180.285C74.8488 179.827 74.7453 179.483 74.4347 179.14C74.2276 178.911 73.71 178.682 72.9852 178.567L71.3287 178.109C70.2933 177.88 69.5686 177.536 69.0509 176.964C68.6368 176.506 68.4297 175.819 68.4297 175.017C68.4297 174.33 68.5333 173.872 68.9474 173.3C69.2912 172.787 69.7572 172.391 70.2933 172.155C70.811 171.811 71.5358 171.697 72.2605 171.697C72.949 171.704 73.6252 171.901 74.2276 172.269C74.7678 172.604 75.2289 173.075 75.5736 173.643C75.9877 174.216 76.1948 174.788 76.1948 175.361H74.5382C74.509 174.976 74.3631 174.613 74.1241 174.33C73.9051 174.028 73.6201 173.791 73.2958 173.643C72.9019 173.467 72.4777 173.389 72.0534 173.414C71.5357 173.414 71.0181 173.529 70.6039 173.872C70.433 173.995 70.2948 174.165 70.2038 174.367C70.1127 174.568 70.0722 174.793 70.0863 175.017C70.0863 175.361 70.1898 175.704 70.5004 175.933L71.9499 176.62L73.71 177.193C74.6418 177.422 75.263 177.765 75.7806 178.338C76.0912 178.796 76.4018 179.483 76.4018 180.285C76.4018 180.972 76.1948 181.544 75.8842 182.002C75.5736 182.46 75.0559 182.804 74.5382 183.147C73.917 183.376 73.1923 183.491 72.4676 183.491ZM79.7149 172.04H81.1644V183.262H79.6114V171.926L79.7149 172.04ZM77.3336 173.758H77.7478C78.369 173.758 78.7831 173.643 79.1972 173.3C79.5079 172.956 79.7149 172.498 79.7149 172.04H80.4397C80.4397 172.727 80.3361 173.3 80.1291 173.872C79.9348 174.382 79.6002 174.812 79.1727 175.1C78.7452 175.387 78.2467 175.519 77.7478 175.475H77.3336V173.758ZM86.9623 183.491C86.1729 183.516 85.3966 183.264 84.7454 182.77C84.0941 182.276 83.6015 181.566 83.3386 180.743C83.0185 179.752 82.8777 178.702 82.9245 177.651C82.9245 176.506 83.028 175.361 83.3386 174.559C83.6307 173.731 84.1343 173.015 84.7881 172.498C85.4093 171.926 86.134 171.697 86.9623 171.697C87.7906 171.697 88.5153 171.926 89.1365 172.498C89.7577 172.956 90.1718 173.643 90.586 174.445C91.2969 176.471 91.2969 178.717 90.586 180.743C90.2939 181.571 89.7902 182.287 89.1365 182.804C88.5153 183.262 87.7906 183.491 87.0658 183.491H86.9623ZM86.9623 181.888C87.4799 181.888 87.9976 181.659 88.3082 181.315C88.7224 180.972 88.9294 180.514 89.1365 179.827C89.3564 179.088 89.4615 178.314 89.4471 177.536C89.4471 176.735 89.4471 175.933 89.1365 175.246C88.9294 174.674 88.7224 174.216 88.3082 173.872C87.9361 173.509 87.4585 173.306 86.9623 173.3C86.4661 173.306 85.9885 173.509 85.6163 173.872C85.3057 174.216 84.9951 174.674 84.7881 175.361C84.5681 176.099 84.4631 176.874 84.4775 177.651C84.4775 178.453 84.4775 179.254 84.7881 179.941C84.9951 180.514 85.3057 181.086 85.6163 181.315C86.0305 181.659 86.4446 181.888 86.9623 181.888Z" fill="white"/>
</g>
<g clip-path="url(#clip1_61_485)">
<path d="M219.688 17.0938H129.549C117.713 17.0938 108.118 27.829 108.118 41.0717V184.116C108.118 197.358 117.713 208.094 129.549 208.094H219.688C231.524 208.094 241.118 197.358 241.118 184.116V41.0717C241.118 27.829 231.524 17.0938 219.688 17.0938Z" fill="#4CB57F"/>
<path d="M165.823 185.094H167.239V183.491C169.418 183.262 170.834 182.117 170.834 180.399C170.834 178.682 169.854 177.765 168.111 177.193L167.239 176.964V173.414C168.329 173.643 168.982 174.445 169.091 175.361H170.725C170.616 173.643 169.091 172.155 167.239 171.811V170.094H165.823V171.811C163.862 172.04 162.554 173.185 162.554 174.903C162.554 176.62 163.426 177.536 165.605 177.995H165.823V181.888C164.733 181.544 163.971 180.743 163.971 179.598H162.118C162.227 181.659 163.535 183.033 165.714 183.376V185.094H165.823ZM164.079 174.903C164.079 173.987 164.842 173.414 165.823 173.3V176.506C164.733 176.162 164.079 175.704 164.079 174.903ZM167.348 182.002V178.453C168.982 178.911 169.418 179.483 169.418 180.285C169.418 181.201 168.546 181.888 167.239 182.002H167.348ZM172.142 181.544V183.262H179.768V181.773H174.321C178.025 179.483 179.768 177.422 179.768 175.361C179.768 173.185 178.243 171.697 175.955 171.697C173.776 171.697 172.142 173.3 172.033 175.475H173.667C173.667 174.101 174.648 173.185 175.955 173.185C177.262 173.185 178.134 173.987 178.134 175.361C178.134 176.964 176.5 178.796 172.142 181.544ZM185.76 183.491C188.375 183.491 190.118 181.201 190.118 177.536C190.118 173.987 188.375 171.811 185.76 171.811C183.146 171.811 181.511 173.987 181.511 177.536C181.511 181.201 183.146 183.491 185.869 183.491H185.76ZM183.037 177.651C183.037 174.903 184.126 173.185 185.76 173.185C187.504 173.185 188.484 174.903 188.484 177.536C188.484 180.285 187.395 182.002 185.76 182.002C184.126 182.002 183.037 180.285 183.037 177.651Z" fill="white"/>
</g>
<g clip-path="url(#clip2_61_485)">
<path d="M314.188 17.0938H227.05C214.385 17.0938 204.119 28.5875 204.119 42.7658V182.422C204.119 196.6 214.385 208.094 227.05 208.094H314.188C326.852 208.094 337.119 196.6 337.119 182.422V42.7658C337.119 28.5875 326.852 17.0938 314.188 17.0938Z" fill="#66DEA2"/>
<path d="M261.582 169.267H262.957V184.45H261.582V169.383V169.267ZM262.407 182.827C261.674 182.827 261.032 182.711 260.482 182.364C259.942 182.071 259.482 181.587 259.156 180.97C258.83 180.352 258.654 179.628 258.648 178.887H260.207C260.207 179.582 260.39 180.046 260.848 180.625C261.307 180.973 261.765 181.205 262.499 181.205C263.013 181.226 263.521 181.066 263.966 180.741C264.424 180.509 264.608 180.046 264.608 179.582C264.608 179.118 264.424 178.771 264.241 178.423C263.966 178.191 263.599 177.959 262.957 177.843L261.399 177.38C260.482 177.148 259.84 176.8 259.473 176.221C259.104 175.728 258.883 175.086 258.849 174.408C258.816 173.73 258.972 173.059 259.29 172.512C259.594 171.993 260.007 171.592 260.482 171.353C261.032 171.005 261.582 170.889 262.316 170.889C262.894 170.915 263.46 171.114 263.966 171.469C264.478 171.792 264.919 172.27 265.25 172.86L265.8 174.598H264.241C264.215 174.208 264.086 173.841 263.874 173.555C263.68 173.248 263.428 173.009 263.141 172.86C262.82 172.697 262.477 172.619 262.132 172.628C261.582 172.628 261.215 172.744 260.848 173.091C260.68 173.2 260.539 173.366 260.442 173.571C260.345 173.776 260.295 174.011 260.298 174.25C260.298 174.598 260.482 174.946 260.665 175.178L261.949 175.873L263.599 176.453C264.333 176.684 264.975 177.032 265.341 177.612C265.708 178.075 265.891 178.771 265.891 179.582C265.891 180.277 265.8 180.857 265.433 181.32C265.158 181.784 264.791 182.132 264.241 182.48C263.65 182.726 263.03 182.843 262.407 182.827ZM266.992 178.771L269.742 171.121H271.118L268.275 179.234L267.725 178.771H273.868V180.393H266.992V178.771ZM271.118 175.757H272.493V182.595H271.118V175.757ZM278.453 182.711C277.78 182.721 277.121 182.472 276.564 181.995C276.007 181.519 275.578 180.838 275.335 180.046C275.021 179.051 274.865 177.987 274.877 176.916C274.877 175.757 275.06 174.598 275.335 173.787C275.594 172.949 276.04 172.224 276.619 171.701C277.169 171.121 277.811 170.889 278.453 170.889C279.095 170.889 279.92 171.121 280.378 171.701C280.944 172.193 281.388 172.875 281.662 173.671C282.292 175.721 282.292 177.995 281.662 180.046C281.403 180.884 280.957 181.609 280.378 182.132C279.92 182.595 279.278 182.827 278.545 182.827L278.453 182.711ZM278.453 181.205C279.003 181.205 279.37 180.973 279.645 180.625C280.012 180.277 280.287 179.814 280.47 179.118C280.665 178.371 280.758 177.587 280.745 176.8C280.745 175.989 280.653 175.178 280.47 174.482C280.287 173.903 280.012 173.439 279.645 173.091C279.339 172.749 278.952 172.545 278.545 172.512C278.105 172.518 277.682 172.724 277.353 173.091C276.986 173.439 276.711 173.903 276.527 174.598C276.333 175.346 276.24 176.129 276.252 176.916C276.252 177.728 276.344 178.539 276.527 179.234C276.711 179.814 276.986 180.393 277.353 180.625C277.628 180.973 278.086 181.205 278.545 181.205H278.453Z" fill="white"/>
</g>
<g clip-path="url(#clip3_61_485)">
<path d="M410.189 17.0938H323.051C310.386 17.0938 300.12 28.5875 300.12 42.7658V182.422C300.12 196.6 310.386 208.094 323.051 208.094H410.189C422.853 208.094 433.12 196.6 433.12 182.422V42.7658C433.12 28.5875 422.853 17.0938 410.189 17.0938Z" fill="#2BB970"/>
<path d="M357.095 168.094H358.489V181.094H357.095V168.193V168.094ZM357.932 179.704C357.188 179.704 356.537 179.605 355.979 179.307C355.432 179.057 354.965 178.643 354.635 178.114C354.305 177.585 354.126 176.966 354.12 176.33H355.7C355.7 176.926 355.886 177.323 356.351 177.819C356.816 178.117 357.281 178.315 358.025 178.315C358.577 178.353 359.127 178.215 359.605 177.918C359.977 177.72 360.163 177.323 360.163 176.926C360.163 176.529 359.977 176.231 359.791 175.933C359.512 175.735 359.14 175.536 358.489 175.437L357.002 175.04C356.072 174.842 355.328 174.544 354.957 174.048C354.585 173.651 354.399 173.056 354.399 172.361C354.399 171.766 354.492 171.369 354.771 170.872C355.079 170.428 355.498 170.085 355.979 169.88C356.537 169.582 357.095 169.483 357.839 169.483C358.425 169.505 358.999 169.675 359.512 169.979C360.031 170.256 360.478 170.665 360.814 171.17C361.186 171.666 361.279 172.162 361.371 172.659H359.791C359.765 172.325 359.634 172.01 359.419 171.766C359.222 171.503 358.967 171.298 358.675 171.17C358.35 171.031 358.003 170.964 357.653 170.972C357.095 170.972 356.723 171.071 356.351 171.369C356.18 171.462 356.038 171.604 355.939 171.779C355.84 171.955 355.79 172.156 355.793 172.361C355.793 172.659 355.979 172.956 356.165 173.155L357.467 173.75L359.14 174.246C359.884 174.445 360.535 174.743 360.907 175.239C361.279 175.636 361.464 176.231 361.464 176.926C361.464 177.521 361.371 178.017 361 178.414C360.721 178.811 360.349 179.109 359.791 179.407C359.326 179.605 358.675 179.704 357.932 179.704ZM365.927 179.704C365.276 179.704 364.625 179.605 364.068 179.307C363.62 179.088 363.235 178.745 362.952 178.315C362.641 177.816 362.479 177.228 362.487 176.628H363.975C363.975 177.124 364.161 177.62 364.532 177.819C364.904 178.117 365.369 178.315 365.927 178.315C366.299 178.315 366.671 178.315 366.857 178.117C367.229 178.017 367.507 177.819 367.6 177.521C367.786 177.323 367.879 177.025 367.879 176.727C367.879 176.231 367.6 175.735 367.229 175.536C366.66 175.201 366.019 175.029 365.369 175.04V173.75C365.741 173.75 366.113 173.75 366.485 173.552L367.229 173.056L367.414 172.262C367.414 171.865 367.322 171.567 367.043 171.269C366.764 171.071 366.392 170.872 365.927 170.872C365.462 170.872 364.997 171.071 364.718 171.269C364.559 171.377 364.426 171.523 364.329 171.695C364.233 171.867 364.175 172.061 364.161 172.262H362.859C362.856 171.77 362.985 171.288 363.231 170.872C363.514 170.442 363.899 170.1 364.346 169.88C364.828 169.647 365.351 169.527 365.88 169.527C366.41 169.527 366.933 169.647 367.414 169.88C367.879 170.078 368.251 170.475 368.53 170.872C368.716 171.269 368.902 171.766 368.902 172.262L368.623 173.453C368.427 173.803 368.135 174.08 367.786 174.246C367.41 174.441 366.996 174.543 366.578 174.544V174.048C367.099 174.029 367.614 174.167 368.065 174.445C368.437 174.643 368.716 174.941 368.995 175.338C369.181 175.735 369.274 176.231 369.274 176.727C369.291 177.283 369.162 177.833 368.902 178.315C368.623 178.712 368.158 179.109 367.693 179.307C367.116 179.609 366.476 179.746 365.834 179.704H365.927ZM374.48 179.704C373.771 179.727 373.074 179.508 372.489 179.08C371.905 178.652 371.462 178.036 371.226 177.323C370.907 176.471 370.749 175.56 370.761 174.643C370.761 173.651 370.947 172.659 371.226 171.964C371.489 171.246 371.941 170.626 372.528 170.178C373.086 169.682 373.736 169.483 374.387 169.483C375.038 169.483 375.875 169.682 376.34 170.178C376.913 170.599 377.364 171.183 377.641 171.865C378.279 173.62 378.279 175.567 377.641 177.323C377.379 178.04 376.927 178.661 376.34 179.109C375.875 179.506 375.224 179.704 374.48 179.704ZM374.48 178.315C374.852 178.315 375.317 178.117 375.596 177.819C375.968 177.521 376.247 177.124 376.432 176.529C376.63 175.889 376.724 175.218 376.711 174.544C376.711 173.849 376.618 173.155 376.432 172.559C376.247 172.063 375.968 171.666 375.596 171.369C375.286 171.075 374.893 170.901 374.48 170.872C374.035 170.878 373.606 171.054 373.272 171.369C372.9 171.666 372.621 172.063 372.435 172.659C372.237 173.299 372.143 173.97 372.156 174.643C372.156 175.338 372.249 176.033 372.435 176.628C372.621 177.124 372.9 177.62 373.272 177.819C373.55 178.117 374.015 178.315 374.48 178.315Z" fill="white"/>
</g>
<g clip-path="url(#clip4_61_485)">
<path d="M507.67 17.0938H417.569C405.722 17.0938 396.119 27.8391 396.119 41.0942V184.093C396.119 197.348 405.722 208.094 417.569 208.094H507.67C519.516 208.094 529.119 197.348 529.119 184.093V41.0942C529.119 27.8391 519.516 17.0938 507.67 17.0938Z" fill="#28A263"/>
<path fill-rule="evenodd" clip-rule="evenodd" d="M462.661 42.5304C454.674 42.5304 448.198 50.7166 448.198 60.8117C448.198 70.908 454.673 79.0931 462.661 79.0931C470.648 79.0931 477.124 70.908 477.124 60.8117C477.124 50.7166 470.648 42.5304 462.661 42.5304ZM446.133 60.8129C446.133 49.2748 453.532 39.9214 462.662 39.9214C471.791 39.9214 479.191 49.2748 479.191 60.8129C479.191 72.3522 471.791 81.7056 462.662 81.7056C453.533 81.7056 446.133 72.3522 446.133 60.8129ZM458.612 54.2945C459.323 53.4461 460.264 52.9748 461.241 52.9779H461.629V47.7541H463.695V52.9779H464.124C464.86 53.0148 465.572 53.319 466.175 53.8541L467.018 54.6075L465.827 56.7412L464.983 55.9879C464.711 55.7473 464.39 55.6091 464.057 55.5891H461.24C460.78 55.5891 460.347 55.8094 460.036 56.1849C459.887 56.3595 459.769 56.5704 459.688 56.8048C459.606 57.0391 459.564 57.292 459.562 57.5479C459.562 58.0463 459.726 58.5377 460.036 58.9109C460.347 59.2853 460.78 59.5067 461.24 59.5067H464.082C465.06 59.5067 466.006 59.9738 466.712 60.8233C467.063 61.2417 467.342 61.7458 467.534 62.3051C467.726 62.8645 467.825 63.4672 467.827 64.0767C467.825 64.6863 467.726 65.289 467.534 65.8483C467.342 66.4076 467.063 66.9118 466.712 67.3301C466.001 68.1788 465.06 68.6501 464.082 68.6468H463.694V73.8705H461.628V68.6468H461.198C460.462 68.6097 459.751 68.3055 459.148 67.7706L458.304 67.0172L459.495 64.8834L460.339 65.6368C460.604 65.8721 460.926 66.0135 461.265 66.0355H464.082C464.542 66.0355 464.975 65.8153 465.287 65.4397C465.597 65.0665 465.76 64.5751 465.76 64.0767C465.76 63.5783 465.597 63.0869 465.287 62.7137C464.96 62.3278 464.529 62.1147 464.082 62.118H461.24C460.263 62.1213 459.321 61.65 458.611 60.8013C458.26 60.383 457.98 59.8788 457.788 59.3195C457.597 58.7602 457.497 58.1574 457.496 57.5479C457.496 56.3147 457.904 55.1452 458.611 54.2945H458.612Z" fill="white"/>
<path d="M426.844 142.986H428.915V139.899C433.057 139.706 435.639 137.612 435.639 134.359C435.639 131.548 433.824 129.536 430.602 128.599L428.915 128.103V120.33C431.011 120.854 432.699 122.563 433.006 124.658H435.256C434.898 121.295 432.162 118.649 428.915 118.181V115.094H426.844V118.153C423.034 118.456 420.682 120.606 420.682 123.969C420.682 126.67 422.471 128.489 426.051 129.426L426.844 129.646V137.722C424.364 137.198 422.727 135.379 422.471 132.678H420.119C420.503 136.675 423.06 139.32 426.844 139.844V142.986ZM422.829 123.886C422.829 121.764 424.389 120.413 426.844 120.193V127.496C424.133 126.642 422.829 125.457 422.829 123.886ZM428.915 137.86V130.198L429.477 130.335C432.264 131.08 433.543 132.292 433.543 134.111C433.543 136.316 431.753 137.722 428.915 137.86ZM437.498 134.966H446.268V139.513H448.365V134.966H451.408V132.788H448.365V126.587H446.268V132.788H439.851L445.757 118.511H443.405L437.498 133.064V134.966ZM452.824 143.427H454.205L455.662 136.289H452.824V143.427ZM463.868 139.927C467.908 139.927 470.746 136.84 470.746 132.43C470.746 127.993 468.163 124.878 464.482 124.878C462.538 124.878 460.825 125.788 459.802 127.193L460.851 120.689H469.698V118.511H459.163L457.501 130.032L459.521 130.418C460.493 128.13 461.976 126.973 463.97 126.973C466.808 126.973 468.624 129.205 468.624 132.43C468.624 135.6 466.68 137.86 463.868 137.86C461.26 137.86 459.445 135.903 459.445 133.147H457.399C457.501 137.143 460.16 139.927 463.868 139.927ZM480.642 139.927C484.809 139.927 487.443 137.143 487.443 132.651C487.443 128.213 484.861 125.429 480.744 125.429C478.213 125.429 475.963 126.918 475.145 129.068C475.528 123.307 477.574 120.138 480.923 120.138C483.199 120.138 484.733 121.46 485.091 123.721H487.29C486.702 120.248 484.324 118.098 480.923 118.098C476.116 118.098 473.355 122.012 473.355 129.068C473.355 136.041 475.988 139.927 480.642 139.927ZM475.809 132.651C475.809 129.619 477.753 127.469 480.54 127.469C483.352 127.469 485.321 129.619 485.321 132.651C485.321 135.737 483.352 137.915 480.54 137.915C477.753 137.915 475.809 135.737 475.809 132.651ZM497.576 139.927C502.204 139.927 505.119 135.737 505.119 128.985C505.119 122.287 502.204 118.098 497.576 118.098C492.974 118.098 490.059 122.315 490.059 129.068C490.059 135.765 492.974 139.927 497.576 139.927ZM492.156 129.068C492.156 123.638 494.252 120.248 497.576 120.248C500.926 120.248 503.048 123.61 503.048 128.985C503.048 134.387 500.926 137.749 497.576 137.749C494.252 137.749 492.156 134.414 492.156 129.068ZM443.239 177.903H444.73L442.445 174.049C443.523 173.59 444.185 172.582 444.185 171.243C444.185 169.405 442.943 168.18 441.084 168.18H437.64V177.903H438.894V174.305H441.285L443.239 177.903ZM438.894 173.041V169.431H441.084C442.209 169.431 442.954 170.158 442.954 171.243C442.954 172.327 442.209 173.041 441.084 173.041H438.894ZM448.561 178.094C450.1 178.094 451.379 176.997 451.579 175.606H450.349C450.136 176.385 449.413 176.908 448.561 176.908C447.342 176.908 446.562 176.065 446.467 174.701H451.651V174.458C451.651 171.919 450.124 170.719 448.455 170.719C446.537 170.719 445.295 172.327 445.295 174.406C445.295 176.64 446.596 178.094 448.561 178.094ZM446.537 173.616C446.774 172.582 447.484 171.893 448.455 171.893C449.473 171.893 450.195 172.57 450.349 173.616H446.537ZM454.769 177.903H456.343L458.829 170.911H457.587L455.551 176.856L453.526 170.911H452.295L454.769 177.903ZM462.652 178.094C464.191 178.094 465.47 176.997 465.67 175.606H464.44C464.227 176.385 463.504 176.908 462.652 176.908C461.433 176.908 460.653 176.065 460.558 174.701H465.742V174.458C465.742 171.919 464.215 170.719 462.546 170.719C460.628 170.719 459.386 172.327 459.386 174.406C459.386 176.64 460.687 178.094 462.652 178.094ZM460.628 173.616C460.865 172.582 461.575 171.893 462.546 171.893C463.564 171.893 464.286 172.57 464.44 173.616H460.628ZM472.005 174.062V177.903H473.212V173.935C473.212 171.957 472.171 170.719 470.537 170.719C469.637 170.719 468.904 171.102 468.43 171.74V170.911H467.223V177.903H468.43V174.177C468.43 172.735 469.117 171.893 470.266 171.893C471.342 171.893 472.005 172.722 472.005 174.062ZM475.983 174.751V170.911H474.776V174.879C474.776 176.856 475.817 178.094 477.451 178.094C478.35 178.094 479.084 177.712 479.558 177.073V177.903H480.765V170.911H479.558V174.637C479.558 176.078 478.871 176.92 477.722 176.92C476.645 176.92 475.983 176.091 475.983 174.751ZM485.51 178.094C487.049 178.094 488.327 176.997 488.528 175.606H487.297C487.084 176.385 486.362 176.908 485.51 176.908C484.291 176.908 483.51 176.065 483.414 174.701H488.599V174.458C488.599 171.919 487.072 170.719 485.403 170.719C483.485 170.719 482.243 172.327 482.243 174.406C482.243 176.64 483.545 178.094 485.51 178.094ZM483.485 173.616C483.723 172.582 484.432 171.893 485.403 171.893C486.421 171.893 487.143 172.57 487.297 173.616H483.485Z" fill="white"/>
</g>
<defs>
<clipPath id="clip0_61_485">
<rect width="132.954" height="215.579" fill="white" transform="translate(11.8223 3.99219)"/>
</clipPath>
<clipPath id="clip1_61_485">
<rect width="132.967" height="215.58" fill="white" transform="translate(107.859 3.99219)"/>
</clipPath>
<clipPath id="clip2_61_485">
<rect width="132.954" height="215.579" fill="white" transform="translate(203.908 3.99219)"/>
</clipPath>
<clipPath id="clip3_61_485">
<rect width="132.954" height="215.579" fill="white" transform="translate(299.944 3.99219)"/>
</clipPath>
<clipPath id="clip4_61_485">
<rect width="132.967" height="215.58" fill="white" transform="translate(395.98 3.99219)"/>
</clipPath>
</defs>
</svg>
