<svg width="24" height="22" viewBox="0 0 24 22" fill="none" xmlns="http://www.w3.org/2000/svg">
<g clip-path="url(#clip0_219_342)">
<path fill-rule="evenodd" clip-rule="evenodd" d="M16.869 7.18864C17.065 7.1564 17.2654 7.21946 17.4082 7.35823C19.0685 8.97268 19.9829 11.1334 19.9829 13.4424C19.9829 18.1247 16.1738 21.9341 11.4917 21.9341C7.61869 21.9341 4.24004 19.312 3.27545 15.5576C3.09267 14.8453 3 14.1337 3 13.4424C3 12.0855 3.31699 10.781 3.94219 9.56542C4.55746 8.37035 5.46217 7.3239 6.55862 6.53887C6.56499 6.5343 6.57148 6.52986 6.57801 6.52551C6.61842 6.49886 6.66157 6.46729 6.70727 6.43385L6.71197 6.43041C6.71658 6.42704 6.72118 6.42367 6.72579 6.42029C6.7441 6.40689 6.76242 6.39348 6.78085 6.3802C8.52423 5.13266 9.61918 3.19871 9.7866 1.07296C9.8031 0.863169 9.92357 0.675611 10.1075 0.57331C10.2915 0.471051 10.5143 0.46766 10.7012 0.564265C12.8488 1.67425 14.4254 3.65246 15.0266 5.99164C15.2095 6.70381 15.3022 7.41539 15.3022 8.10687C15.3022 8.46725 15.2787 8.82666 15.232 9.18394C15.7003 8.68936 16.0984 8.12986 16.4118 7.52104C16.5029 7.34408 16.6725 7.22076 16.869 7.18864ZM11 17.4941C12.6569 17.4941 14 15.9271 14 13.9941C14 12.0611 12.6569 10.4941 11 10.4941C9.34315 10.4941 8 12.0611 8 13.9941C8 15.9271 9.34315 17.4941 11 17.4941Z" fill="white" fill-opacity="0.72"/>
</g>
<defs>
<clipPath id="clip0_219_342">
<rect width="23.8187" height="21.4399" fill="white" transform="translate(0 0.494141)"/>
</clipPath>
</defs>
</svg>
